<mxfile host="app.diagrams.net" agent="Mozilla/5.0 (Macintosh; Intel Mac OS X 10_15_7) AppleWebKit/537.36 (KHTML, like Gecko) Chrome/139.0.0.0 Safari/537.36" version="28.2.0">
  <diagram name="Page-1" id="fU05geMhdsVDjb5OYTvc">
    <mxGraphModel dx="1634" dy="824" grid="0" gridSize="10" guides="1" tooltips="1" connect="1" arrows="1" fold="1" page="0" pageScale="1" pageWidth="850" pageHeight="1100" math="0" shadow="0">
      <root>
        <mxCell id="0" />
        <mxCell id="1" parent="0" />
        <mxCell id="0KO5zPI1rOB74gBpKULq-1" value="&lt;font style=&quot;font-size: 16px;&quot;&gt;片段1:公司历史&lt;/font&gt;&lt;div&gt;&lt;br&gt;&lt;/div&gt;" style="text;html=1;align=center;verticalAlign=middle;whiteSpace=wrap;rounded=0;" vertex="1" parent="1">
          <mxGeometry x="-11" y="171" width="122" height="36" as="geometry" />
        </mxCell>
        <mxCell id="0KO5zPI1rOB74gBpKULq-2" value="&lt;div style=&quot;font-size: 16px; line-height: 24px; white-space: pre;&quot;&gt;&lt;span&gt;&lt;font face=&quot;Helvetica&quot; style=&quot;color: rgb(25, 25, 25);&quot;&gt;农夫山泉成立于&lt;/font&gt;&lt;/span&gt;&lt;/div&gt;&lt;div style=&quot;font-size: 16px; line-height: 24px; white-space: pre;&quot;&gt;&lt;span&gt;&lt;font face=&quot;Helvetica&quot; style=&quot;color: rgb(25, 25, 25);&quot;&gt;1996年，总部位于&lt;/font&gt;&lt;/span&gt;&lt;/div&gt;&lt;div style=&quot;font-size: 16px; line-height: 24px; white-space: pre;&quot;&gt;&lt;span&gt;&lt;font face=&quot;Helvetica&quot; style=&quot;color: rgb(25, 25, 25);&quot;&gt;浙江杭州...&lt;/font&gt;&lt;/span&gt;&lt;/div&gt;" style="text;html=1;align=left;verticalAlign=middle;whiteSpace=wrap;rounded=0;" vertex="1" parent="1">
          <mxGeometry x="-23" y="218" width="142" height="79" as="geometry" />
        </mxCell>
        <mxCell id="0KO5zPI1rOB74gBpKULq-3" value="&lt;font style=&quot;font-size: 16px;&quot;&gt;片段2:水源地&lt;/font&gt;&lt;div&gt;&lt;br&gt;&lt;/div&gt;" style="text;html=1;align=center;verticalAlign=middle;whiteSpace=wrap;rounded=0;" vertex="1" parent="1">
          <mxGeometry x="208" y="171" width="122" height="36" as="geometry" />
        </mxCell>
        <mxCell id="0KO5zPI1rOB74gBpKULq-4" value="&lt;div style=&quot;font-size: 16px; line-height: 24px; white-space: pre;&quot;&gt;&lt;div style=&quot;line-height: 24px;&quot;&gt;&lt;span&gt;&lt;font face=&quot;Helvetica&quot; style=&quot;color: rgb(25, 25, 25);&quot;&gt;千岛湖是农夫山泉&lt;/font&gt;&lt;/span&gt;&lt;/div&gt;&lt;div style=&quot;line-height: 24px;&quot;&gt;&lt;span&gt;&lt;font face=&quot;Helvetica&quot; style=&quot;color: rgb(25, 25, 25);&quot;&gt;的主要水源地之一...&lt;/font&gt;&lt;/span&gt;&lt;/div&gt;&lt;/div&gt;" style="text;html=1;align=left;verticalAlign=middle;whiteSpace=wrap;rounded=0;" vertex="1" parent="1">
          <mxGeometry x="208" y="218" width="151" height="60" as="geometry" />
        </mxCell>
        <mxCell id="0KO5zPI1rOB74gBpKULq-5" value="&lt;font style=&quot;font-size: 16px;&quot;&gt;片段3:产品线&lt;/font&gt;&lt;div&gt;&lt;br&gt;&lt;/div&gt;" style="text;html=1;align=center;verticalAlign=middle;whiteSpace=wrap;rounded=0;" vertex="1" parent="1">
          <mxGeometry x="406" y="174" width="122" height="36" as="geometry" />
        </mxCell>
        <mxCell id="0KO5zPI1rOB74gBpKULq-6" value="&lt;div style=&quot;font-size: 16px; line-height: 24px; white-space: pre;&quot;&gt;&lt;div style=&quot;line-height: 24px;&quot;&gt;&lt;div style=&quot;line-height: 24px;&quot;&gt;&lt;font style=&quot;color: rgb(25, 25, 25);&quot; face=&quot;Helvetica&quot;&gt;包括饮用天然水、&lt;/font&gt;&lt;/div&gt;&lt;div style=&quot;line-height: 24px;&quot;&gt;&lt;font style=&quot;color: rgb(25, 25, 25);&quot; face=&quot;Helvetica&quot;&gt;果汁、茶饮料等&lt;/font&gt;&lt;/div&gt;&lt;div style=&quot;line-height: 24px;&quot;&gt;&lt;font style=&quot;color: rgb(25, 25, 25);&quot; face=&quot;Helvetica&quot;&gt;系列...（当前片段）&lt;/font&gt;&lt;/div&gt;&lt;/div&gt;&lt;/div&gt;" style="text;html=1;align=left;verticalAlign=middle;whiteSpace=wrap;rounded=0;" vertex="1" parent="1">
          <mxGeometry x="406" y="216" width="140.5" height="76" as="geometry" />
        </mxCell>
        <mxCell id="0KO5zPI1rOB74gBpKULq-7" value="&lt;font style=&quot;font-size: 16px;&quot;&gt;片段4:市场份额&lt;/font&gt;&lt;div&gt;&lt;br&gt;&lt;/div&gt;" style="text;html=1;align=center;verticalAlign=middle;whiteSpace=wrap;rounded=0;" vertex="1" parent="1">
          <mxGeometry x="578" y="169" width="122" height="36" as="geometry" />
        </mxCell>
        <mxCell id="0KO5zPI1rOB74gBpKULq-8" value="&lt;div style=&quot;font-size: 16px; line-height: 24px; white-space: pre;&quot;&gt;&lt;div style=&quot;line-height: 24px;&quot;&gt;&lt;div style=&quot;line-height: 24px;&quot;&gt;&lt;div style=&quot;line-height: 24px;&quot;&gt;&lt;span&gt;&lt;font face=&quot;Helvetica&quot; style=&quot;color: rgb(25, 25, 25);&quot;&gt;2023年农夫山泉&lt;/font&gt;&lt;/span&gt;&lt;/div&gt;&lt;div style=&quot;line-height: 24px;&quot;&gt;&lt;span&gt;&lt;font face=&quot;Helvetica&quot; style=&quot;color: rgb(25, 25, 25);&quot;&gt;在中国瓶装水市场&lt;/font&gt;&lt;/span&gt;&lt;/div&gt;&lt;div style=&quot;line-height: 24px;&quot;&gt;&lt;span&gt;&lt;font face=&quot;Helvetica&quot; style=&quot;color: rgb(25, 25, 25);&quot;&gt;占有...&lt;/font&gt;&lt;/span&gt;&lt;/div&gt;&lt;/div&gt;&lt;/div&gt;&lt;/div&gt;" style="text;html=1;align=left;verticalAlign=middle;whiteSpace=wrap;rounded=0;" vertex="1" parent="1">
          <mxGeometry x="580" y="210" width="140.5" height="76" as="geometry" />
        </mxCell>
        <mxCell id="0KO5zPI1rOB74gBpKULq-9" value="&lt;font style=&quot;font-size: 16px;&quot;&gt;片段5:发展&lt;/font&gt;&lt;div&gt;&lt;br&gt;&lt;/div&gt;" style="text;html=1;align=center;verticalAlign=middle;whiteSpace=wrap;rounded=0;" vertex="1" parent="1">
          <mxGeometry x="788" y="164" width="122" height="36" as="geometry" />
        </mxCell>
        <mxCell id="0KO5zPI1rOB74gBpKULq-10" value="&lt;div style=&quot;font-size: 16px; line-height: 24px; white-space: pre;&quot;&gt;&lt;div style=&quot;line-height: 24px;&quot;&gt;&lt;div style=&quot;line-height: 24px;&quot;&gt;&lt;div style=&quot;line-height: 24px;&quot;&gt;&lt;div style=&quot;line-height: 24px;&quot;&gt;&lt;font style=&quot;color: rgb(25, 25, 25);&quot; face=&quot;Helvetica&quot;&gt;未来将继续&lt;/font&gt;&lt;/div&gt;&lt;div style=&quot;line-height: 24px;&quot;&gt;&lt;font style=&quot;color: rgb(25, 25, 25);&quot; face=&quot;Helvetica&quot;&gt;扩展国际...&lt;/font&gt;&lt;/div&gt;&lt;/div&gt;&lt;/div&gt;&lt;/div&gt;&lt;/div&gt;" style="text;html=1;align=left;verticalAlign=middle;whiteSpace=wrap;rounded=0;" vertex="1" parent="1">
          <mxGeometry x="804" y="210" width="98.5" height="59" as="geometry" />
        </mxCell>
        <mxCell id="0KO5zPI1rOB74gBpKULq-11" value="&lt;div&gt;&lt;div style=&quot;font-size: 16px; line-height: 24px; white-space: pre;&quot;&gt;&lt;span&gt;&lt;font face=&quot;Helvetica&quot; style=&quot;color: rgb(25, 25, 25);&quot;&gt;步骤1：收集邻近片段&lt;/font&gt;&lt;/span&gt;&lt;/div&gt;&lt;/div&gt;" style="text;html=1;align=center;verticalAlign=middle;whiteSpace=wrap;rounded=0;" vertex="1" parent="1">
          <mxGeometry x="-56" y="465" width="189" height="36" as="geometry" />
        </mxCell>
        <mxCell id="0KO5zPI1rOB74gBpKULq-12" value="&lt;div style=&quot;line-height: 24px;&quot;&gt;&lt;font color=&quot;#191919&quot;&gt;&lt;span style=&quot;font-size: 16px; white-space: pre;&quot;&gt;步骤2：生成上下文描述&lt;/span&gt;&lt;/font&gt;&lt;/div&gt;" style="text;html=1;align=center;verticalAlign=middle;whiteSpace=wrap;rounded=0;" vertex="1" parent="1">
          <mxGeometry x="-58" y="541" width="189" height="36" as="geometry" />
        </mxCell>
        <mxCell id="0KO5zPI1rOB74gBpKULq-13" value="&lt;div style=&quot;line-height: 24px;&quot;&gt;&lt;font color=&quot;#191919&quot;&gt;&lt;span style=&quot;font-size: 16px; white-space: pre;&quot;&gt;步骤3：生成增强后的片段&lt;/span&gt;&lt;/font&gt;&lt;/div&gt;" style="text;html=1;align=center;verticalAlign=middle;whiteSpace=wrap;rounded=0;" vertex="1" parent="1">
          <mxGeometry x="-74" y="612" width="189" height="36" as="geometry" />
        </mxCell>
      </root>
    </mxGraphModel>
  </diagram>
</mxfile>
